<svg width="25" height="24" viewBox="0 0 25 24" fill="none" xmlns="http://www.w3.org/2000/svg">
<g clip-path="url(#clip0_1197_2931)">
<mask id="mask0_1197_2931" style="mask-type:alpha" maskUnits="userSpaceOnUse" x="0" y="0" width="25" height="24">
<rect x="0.75" width="24" height="24" fill="#D9D9D9"/>
</mask>
<g mask="url(#mask0_1197_2931)">
<path d="M20.7 21C18.6167 21 16.5583 20.5458 14.525 19.6375C12.4917 18.7292 10.6417 17.4417 8.975 15.775C7.30833 14.1083 6.02083 12.2583 5.1125 10.225C4.20417 8.19167 3.75 6.13333 3.75 4.05C3.75 3.75 3.85 3.5 4.05 3.3C4.25 3.1 4.5 3 4.8 3H8.85C9.08333 3 9.29167 3.07917 9.475 3.2375C9.65833 3.39583 9.76667 3.58333 9.8 3.8L10.45 7.3C10.4833 7.56667 10.475 7.79167 10.425 7.975C10.375 8.15833 10.2833 8.31667 10.15 8.45L7.725 10.9C8.05833 11.5167 8.45417 12.1125 8.9125 12.6875C9.37083 13.2625 9.875 13.8167 10.425 14.35C10.9417 14.8667 11.4833 15.3458 12.05 15.7875C12.6167 16.2292 13.2167 16.6333 13.85 17L16.2 14.65C16.35 14.5 16.5458 14.3875 16.7875 14.3125C17.0292 14.2375 17.2667 14.2167 17.5 14.25L20.95 14.95C21.1833 15.0167 21.375 15.1375 21.525 15.3125C21.675 15.4875 21.75 15.6833 21.75 15.9V19.95C21.75 20.25 21.65 20.5 21.45 20.7C21.25 20.9 21 21 20.7 21ZM6.775 9L8.425 7.35L8 5H5.775C5.85833 5.68333 5.975 6.35833 6.125 7.025C6.275 7.69167 6.49167 8.35 6.775 9ZM15.725 17.95C16.375 18.2333 17.0375 18.4583 17.7125 18.625C18.3875 18.7917 19.0667 18.9 19.75 18.95V16.75L17.4 16.275L15.725 17.95Z" fill="#072C2C"/>
</g>
</g>
<defs>
<clipPath id="clip0_1197_2931">
<rect width="24" height="24" fill="white" transform="translate(0.75)"/>
</clipPath>
</defs>
</svg>
