<svg width="25" height="24" viewBox="0 0 25 24" fill="none" xmlns="http://www.w3.org/2000/svg">
<path d="M2.75 11.9999L12.3922 16.8211C12.5234 16.8866 12.589 16.9194 12.6578 16.9324C12.7187 16.9438 12.7813 16.9438 12.8422 16.9324C12.911 16.9194 12.9766 16.8866 13.1078 16.8211L22.75 11.9999M2.75 16.9999L12.3922 21.8211C12.5234 21.8866 12.589 21.9194 12.6578 21.9324C12.7187 21.9438 12.7813 21.9438 12.8422 21.9324C12.911 21.9194 12.9766 21.8866 13.1078 21.8211L22.75 16.9999M2.75 6.99994L12.3922 2.17883C12.5234 2.11324 12.589 2.08044 12.6578 2.06753C12.7187 2.0561 12.7813 2.0561 12.8422 2.06753C12.911 2.08044 12.9766 2.11324 13.1078 2.17883L22.75 6.99994L13.1078 11.8211C12.9766 11.8866 12.911 11.9194 12.8422 11.9324C12.7813 11.9438 12.7187 11.9438 12.6578 11.9324C12.589 11.9194 12.5234 11.8866 12.3922 11.8211L2.75 6.99994Z" stroke="#072C2C" stroke-width="2" stroke-linecap="round" stroke-linejoin="round"/>
</svg>
