<svg width="25" height="24" viewBox="0 0 25 24" fill="none" xmlns="http://www.w3.org/2000/svg">
<path d="M12.25 2C13.5632 2 14.8636 2.25866 16.0768 2.76121C17.2901 3.26375 18.3925 4.00035 19.3211 4.92893C20.2497 5.85752 20.9863 6.95991 21.4888 8.17317C21.9913 9.38643 22.25 10.6868 22.25 12M12.25 2V12M12.25 2C6.72715 2 2.25 6.47715 2.25 12C2.25 17.5228 6.72715 22 12.25 22C17.7728 22 22.25 17.5229 22.25 12M12.25 2C17.7728 2 22.25 6.47716 22.25 12M22.25 12L12.25 12M22.25 12C22.25 13.5781 21.8765 15.1338 21.1601 16.5399C20.4436 17.946 19.4046 19.1626 18.1279 20.0902L12.25 12" stroke="#072C2C" stroke-width="2" stroke-linecap="round" stroke-linejoin="round"/>
</svg>
