<?xml version="1.0" encoding="UTF-8"?>
<!DOCTYPE svg PUBLIC "-//W3C//DTD SVG 1.0//EN" "http://www.w3.org/TR/2001/REC-SVG-20010904/DTD/svg10.dtd">
<!-- Creator: CorelDRAW -->
<svg xmlns="http://www.w3.org/2000/svg" xml:space="preserve" width="186.18mm" height="129.506mm" version="1.0" style="shape-rendering:geometricPrecision; text-rendering:geometricPrecision; image-rendering:optimizeQuality; fill-rule:evenodd; clip-rule:evenodd"
viewBox="0 0 18603.71 12940.73"
 xmlns:xlink="http://www.w3.org/1999/xlink"
 xmlns:xodm="http://www.corel.com/coreldraw/odm/2003">
 <defs>
  <style type="text/css">
   <![CDATA[
    .fil1 {fill:#1BA1A0}
    .fil0 {fill:#1BA1A0;fill-rule:nonzero}
   ]]>
  </style>
 </defs>
 <g id="Слой_x0020_1">
  <metadata id="CorelCorpID_0Corel-Layer"/>
  <g id="_1916496151360">
   <path class="fil0" d="M448.96 12475.17c-202.69,0 -224.92,168.9 -275.04,465.55l-173.92 0 0 -631.02 140.7 0c249.15,-342.03 446.69,-944.7 446.69,-1340.58 0,-111.07 -28.99,-162.17 -133.04,-173.45l0 -85.12 1186 0 0 85.12c-143.85,34.29 -153.73,70.75 -153.73,258.6l0 1255.43 210.37 0 0 631.02 -173.51 0c-48.09,-282.68 -71.94,-465.55 -278.14,-465.55l-796.39 0zm629.21 -165.46l0 -1445.18 -283.18 0c-53.45,616.03 -192.78,1097.88 -418.34,1445.18l701.52 0zm1653.83 -297.44c-194.59,402.39 -344.07,572.9 -787.38,456.28l0 -361.82 192.29 0c8.6,233.43 231.71,236.29 384.25,-71.04l-570.73 -1181.74c-27.38,-36.19 -62.43,-55.58 -104.72,-58.27l0 -85.12 701.99 0 0 85.12c-162.55,21.2 -94.31,161.91 -31.88,302.72l225.16 514.55c62.6,-145.69 274.11,-590.63 274.11,-714.88 0,-64.85 -34.17,-98.82 -102.88,-102.38l0 -85.12 521.31 0 0 85.12c-113.52,24.58 -198.24,174.68 -262.92,302.72l-438.6 913.87zm2028.64 -1261.58l0 374.63 -178.87 0c-91.45,-419.57 -467.42,-319.76 -593.72,-88.24 -150.07,275.13 -217.95,1307.49 276.36,1307.49 208.64,0 272.1,-112.59 315.99,-304.94l180.24 0 0 391.42c-730.98,171 -1297.93,67.72 -1297.93,-820.76 0,-815.28 600.83,-1053.4 1297.93,-859.6zm610.68 1724.49l0 -85.18c154.49,-25.83 159.51,-79.31 159.51,-239.15l0 -1288.96c-243.43,0 -315.14,-9.07 -390.95,302.28l-180.66 0 0 -453.6 1549.99 0 0 453.6 -180.65 0c-85.9,-303.68 -123.03,-302.28 -389.65,-302.28 0,177.73 -21.75,1368.98 18.47,1450.46 26.71,54.18 79.14,68.85 141.08,77.65l0 85.18 -727.13 0zm2929.65 -324.33c0,162.23 9.68,207.8 139.33,239.15l0 85.18 -687.11 0 0 -85.18c132.24,-31.29 139.73,-65.78 139.73,-239.15l11.73 -853.42 -7.67 0 -625.59 853.42c0,85.15 8.11,142.54 24.32,172.55 16.13,29.54 55.73,51.61 117.69,66.6l0 85.18 -691.17 0 0 -85.18c128.78,-31.79 141.11,-80.48 141.11,-239.15 0,-172.49 21.11,-1210.29 -23.79,-1288.96 -15.75,-27.8 -54.88,-49.87 -117.32,-66.2l0 -85.12 691.17 0 0 85.12c-130.75,36.3 -142.01,82 -142.01,241.83l-9.36 823.41 8.08 0 622.81 -854.33c0,-72.34 -8.04,-121.78 -23.79,-148.26 -15.75,-26.01 -54.39,-47.2 -115.94,-62.66l0 -85.12 687.11 0 0 85.12c-129.3,34.55 -139.33,80.4 -139.33,241.83l0 1113.33zm1586.44 -1393.97l0 -85.18 691.17 0 0 85.18c-124.4,31.03 -140.61,73.25 -140.61,213.58 499.29,3.53 749.15,198.12 749.15,584.23 0,397.15 -249.86,600.57 -749.15,610.28 0,148.96 14.14,193.57 140.61,225.03l0 85.18 -691.17 0 0 -85.18c125.59,-29.54 140.9,-75.11 142.51,-225.03 -939.27,0 -856.72,-794.14 -561.82,-1031.71 130.32,-104.98 317.74,-159.28 561.82,-162.81 -1.61,-139.42 -21.69,-183.14 -142.51,-213.58zm142.51 1269.55l0 -915.22c-446.17,35.23 -378.13,605.85 -253.53,777.08 60.24,82.53 144.72,128.86 253.53,138.13zm408.05 -915.22l0 915.22c231.88,-18.35 337.01,-210.08 337.01,-435.55 0,-296.51 -112.33,-456.28 -337.01,-479.67zm1803.45 817.23l-562.25 0c-50.24,142.98 -189.23,445.35 51.7,461.56l0 85.18 -562.22 0 0 -85.18c121.14,-13.18 175.47,-142.24 217.07,-252.39l549.19 -1436.32 351.45 0 483.1 1585.92c28.85,59.95 71.54,88.45 139.77,102.79l0 85.18 -727.12 0 0 -85.18c218.2,-25.19 120.99,-241.54 59.3,-461.56zm-511.86 -151.34l473.64 0 -210.31 -727.65 -263.33 727.65zm1882.51 375.07c0,160.59 7.67,210.54 159.14,237.83l0 85.18 -708.3 0 0 -85.18c134.79,-36.24 141.14,-76.83 141.14,-239.15 0,-161.35 23.33,-1200.84 -20.7,-1284.1l-120.44 -71.07 0 -85.12 764.92 0c365.79,0 665.1,101.39 665.1,477.01 0,516.88 -461.3,577.92 -880.87,550.68l0 413.91zm0 -559.98c274.35,0 475.53,-0.06 475.53,-369.76 0,-351.77 -185.67,-373.26 -475.53,-357.9l0 727.65zm3133.75 -796.5c-132.07,37.47 -139.77,81.16 -139.77,237.87l8.11 1243.04c12.86,73.19 49.95,91.71 131.66,113.4l0 85.18 -675.42 0 0 -85.18c130.87,-35.86 139.73,-55 139.73,-240.46l11.72 -1082.01 -27.87 0 -452.55 1212.59 -231.88 0 -429.22 -1225.83 -23.8 0 22.46 1232.05c16.04,63.39 61.43,85.79 133.03,103.66l0 85.18 -497.95 0 0 -85.18c141.19,-37.9 141.08,-85.87 141.08,-237.83l-8.49 -1252.76c-15.31,-62.92 -58.35,-82.49 -132.59,-103.72l0 -85.12 654.81 0 364.45 1061.23 394.98 -1061.23 617.52 0 0 85.12zm1190.06 1132.75l-562.23 0c-50.27,142.95 -189.23,445.35 51.68,461.56l0 85.18 -562.23 0 0 -85.18c121.17,-13.18 175.47,-142.24 217.1,-252.39l549.16 -1436.32 351.48 0 483.13 1585.92c28.82,59.98 71.39,88.45 139.74,102.79l0 85.18 -727.12 0 0 -85.18c218.23,-25.19 120.96,-241.62 59.28,-461.56zm-511.9 -151.34l473.73 0 -210.34 -727.65 -263.39 727.65z"/>
   <path class="fil1" d="M6073.63 7712.06c343.72,69.96 632.3,179.98 1017.77,194.5 720.16,27.06 722.58,-466.13 1850.17,317.31 243.11,168.92 520.52,325.87 651.72,556.79 -1050.94,295.02 -268.25,187.71 -1857.06,-209.58 -529.61,-132.42 -1100.59,-293.97 -1498.92,-659.07 -108.54,-99.52 -86.87,-112.56 -163.68,-199.96zm1946.55 -2760.81l-1722.97 1691.76c1095.57,515.8 2244.98,-622.34 1722.97,-1691.76zm-747.19 -652.04c-466.57,-156.3 -981.94,-38.26 -1330.32,303.86 -388.83,381.78 -488.01,961.2 -252.13,1444.28l1722.97 -1691.77c-45.32,-21.31 -92.24,-40.18 -140.52,-56.37zm-156.28 -345.09c338.33,54.79 515.28,169.89 782.8,347.1l-2264.38 2223.34c-180.36,-262.68 -297.7,-436.57 -353.52,-768.65 -66.34,-395.01 21.67,-793.38 245.57,-1124.09l-41.33 21.05c-539.36,402.3 -1003.16,2177.82 1147.34,2684.22 1016.69,239.45 1129.57,-358.18 2009.27,113.17 1006.75,539.45 1070,786.09 1389.26,992.67 737.16,-343.14 1277.45,-1501.79 1265.23,-2484.98 -14.73,-1182.93 -565.17,-1515.11 -797.73,-2047.97 -182.95,-419.39 -22.24,-470.42 363.61,-465.28 -37.71,-261.46 -107.81,-585.03 17.15,-818.31 124.16,-231.86 315.49,-219.47 634.8,-255.65 -202.9,-526.91 -815.96,-1085.58 -1329.01,-1349.8 -633.22,-325.94 -1407.62,-472.3 -2216.22,-500.93l15.72 3464.05c-332.68,-219.17 -727.21,-337.13 -1129.9,-337.13 -161.9,0 -326.6,18.2 -483.92,55.67 -9.45,-618.71 -8.22,-1391.99 -0.53,-2010.96 15.2,-1224.29 -103.14,-916.85 -612.26,-1205.81l2.28 -485.85c1381,14.73 2851.97,-53.31 4131.43,284.11 1248.55,329.32 1937.28,789.16 2748.79,1616.3 642.74,655.13 1244.33,1943.14 1093.59,3218.75 -127.46,1078.6 -847.59,2108.7 -1585.66,2742.61 -768.42,659.87 -1640.24,1096.8 -2849.08,1519.17 -551.37,192.66 -416.59,156.56 -860.83,-61.5 -656.44,-322.14 -1585.45,-285.28 -2354.65,-888.68 -878.27,-689.01 -1557.87,-1845.86 -1273.81,-2993.95 276.33,-1117.18 1268.71,-1504.18 2044.64,-1504.06 87.46,0.08 174.83,7.37 261.34,21.37zm1167.99 849.19c572.51,1130.8 -399.59,2450.21 -1690.72,2241.19 -338.24,-54.8 -515.25,-169.92 -782.8,-347.07l2264.38 -2223.37 209.14 329.25zm3445.62 1353.59c-31.96,-882.38 51.03,-1016.28 -255.71,-1857.87 -81.65,-224.05 -657.4,-1495.08 -73.39,-1566.53 520.26,-63.62 586.39,1090.38 616.87,1555.83 36.89,564.79 -85.79,1411.74 -287.76,1868.57zm-4818.17 -5625.28l454.18 -4.32c-5.25,921.48 -10.52,1809.72 -15.8,2731.21 -145.93,-49.66 -291.82,-46.59 -437.73,-52.02l-0.65 -2674.87zm4760.08 6999.4c102.99,-380.49 1389.34,-2001.55 658.63,-4536.39 -217.07,-753.07 -431.58,-910.08 -551.81,-1251.81 339.08,171.61 832.3,757.22 1057.05,1171.71 583.8,1076.68 522.85,2451.81 -104.6,3481.39 -193.48,317.45 -805.95,1029.99 -1059.27,1135.09z"/>
  </g>
 </g>
</svg>
